<?xml version="1.0" standalone="no"?>
<!DOCTYPE svg PUBLIC "-//W3C//DTD SVG 20010904//EN"
 "http://www.w3.org/TR/2001/REC-SVG-20010904/DTD/svg10.dtd">
<svg version="1.0" xmlns="http://www.w3.org/2000/svg"
 width="512.000000pt" height="512.000000pt" viewBox="0 0 512.000000 512.000000"
 preserveAspectRatio="xMidYMid meet">

<g transform="translate(0.000000,512.000000) scale(0.100000,-0.100000)"
fill="#000000" stroke="none">
<path d="M2850 4964 c0 -5 7 -18 15 -28 8 -10 28 -60 45 -110 48 -144 84 -187
144 -172 44 11 76 107 76 230 0 52 -3 65 -17 71 -29 11 -263 19 -263 9z"/>
<path d="M2443 4910 c-152 -39 -158 -42 -102 -70 24 -13 83 -62 131 -111 91
-93 130 -114 180 -97 33 12 50 55 38 98 -16 56 -111 211 -128 210 -4 -1 -57
-14 -119 -30z"/>
<path d="M3375 4722 c0 -97 4 -183 8 -189 17 -26 68 -15 102 23 65 71 138 241
112 262 -9 8 -211 82 -220 82 -1 0 -2 -80 -2 -178z"/>
<path d="M833 4816 c-69 -58 -124 -239 -105 -350 15 -91 36 -136 60 -129 20 5
20 6 -4 50 -28 54 -30 78 -7 135 12 30 13 43 5 46 -18 6 -14 32 5 32 13 0 14
3 5 12 -16 16 -15 28 3 28 9 0 15 9 15 23 0 12 9 36 19 54 21 33 45 112 38
119 -3 3 -18 -6 -34 -20z"/>
<path d="M1300 4604 c-20 -68 -24 -176 -6 -199 23 -31 45 -11 103 101 29 54
52 102 53 105 0 10 -27 18 -85 25 l-53 7 -12 -39z"/>
<path d="M3860 4525 c-39 -58 -75 -116 -80 -130 -21 -55 35 -104 102 -90 46
10 228 91 258 115 l25 20 -50 46 c-49 44 -148 124 -172 138 -8 4 -37 -30 -83
-99z"/>
<path d="M1557 4483 c-65 -164 -84 -259 -67 -324 21 -79 86 -122 132 -86 41
31 204 331 210 386 3 23 -6 29 -102 68 -58 23 -112 43 -121 43 -12 0 -28 -27
-52 -87z"/>
<path d="M2385 4365 c-8 -30 -22 -79 -30 -108 -11 -41 -12 -62 -4 -92 12 -42
5 -111 -13 -133 -9 -10 -6 -14 10 -19 30 -7 28 -23 -3 -23 -22 0 -24 -3 -16
-19 12 -22 3 -35 -14 -21 -9 8 -14 2 -19 -21 -3 -17 -16 -45 -28 -61 l-22 -31
39 6 c68 11 120 84 152 214 19 81 23 294 5 336 -19 44 -40 34 -57 -28z"/>
<path d="M1943 4352 c-61 -112 -67 -183 -17 -202 41 -16 101 17 162 88 l53 61
-48 35 c-26 19 -64 44 -83 55 l-36 20 -31 -57z"/>
<path d="M618 4300 c-9 -14 -22 -38 -29 -54 -12 -25 -11 -30 6 -42 45 -33 62
-9 49 69 l-9 52 -17 -25z"/>
<path d="M4276 4142 c-94 -49 -226 -163 -226 -194 0 -32 31 -51 74 -45 42 5
320 90 345 106 12 8 4 26 -40 95 -29 47 -56 86 -59 86 -3 0 -45 -22 -94 -48z"/>
<path d="M3603 4143 c-4 -9 1 -29 10 -45 19 -32 22 -30 -66 -48 -77 -16 -219
-87 -286 -145 -62 -53 -126 -130 -164 -197 -43 -74 -31 -67 21 13 72 110 173
199 284 253 93 45 193 76 243 76 l27 0 -31 35 c-32 36 -36 47 -25 58 13 13 61
-26 99 -79 22 -30 40 -54 41 -54 1 0 -4 18 -9 39 -6 22 -14 38 -17 36 -4 -2
-24 14 -45 35 -41 42 -71 51 -82 23z"/>
<path d="M522 4057 l-19 -82 31 -14 c70 -30 137 -26 156 10 16 28 -3 54 -84
117 l-65 51 -19 -82z"/>
<path d="M497 3904 c-4 -4 -7 -36 -7 -71 0 -62 1 -64 23 -58 37 12 67 35 79
61 10 21 8 28 -8 44 -21 21 -75 36 -87 24z"/>
<path d="M690 3765 c0 -40 3 -47 28 -56 50 -19 102 -62 147 -122 29 -38 45
-52 45 -40 0 31 -46 119 -87 164 -39 43 -109 99 -125 99 -4 0 -8 -20 -8 -45z"/>
<path d="M2352 3773 c-7 -2 -17 -13 -22 -23 -8 -15 -4 -26 21 -55 46 -52 59
-47 59 25 0 56 -2 60 -22 59 -13 0 -29 -3 -36 -6z"/>
<path d="M4325 3696 c-93 -13 -187 -30 -207 -39 -70 -30 -86 -94 -30 -115 55
-22 225 -45 415 -58 l97 -6 0 68 c0 38 -3 93 -6 122 l-7 52 -46 -1 c-25 0
-122 -11 -216 -23z"/>
<path d="M2195 3586 c-22 -33 -11 -69 33 -107 32 -29 100 -65 107 -57 5 5 55
149 55 157 0 10 -93 31 -141 31 -30 0 -42 -5 -54 -24z"/>
<path d="M2978 3445 c-7 -161 -36 -303 -78 -386 -29 -55 -79 -129 -88 -129 -4
0 -15 31 -25 68 -24 93 -54 150 -88 167 -38 20 -51 19 -84 -7 l-27 -21 6 -146
c8 -193 4 -208 -59 -233 -141 -56 -372 -80 -555 -59 -58 7 -106 14 -108 16 -2
2 11 49 28 104 54 175 51 241 -9 241 -53 0 -161 -109 -221 -221 -17 -32 -35
-61 -41 -64 -14 -9 -128 29 -228 76 -120 56 -245 142 -328 226 l-72 73 -70 0
-69 0 -108 -108 c-143 -142 -202 -182 -270 -182 -28 0 -71 7 -94 15 -24 8 -45
13 -47 11 -2 -2 8 -57 22 -122 89 -395 278 -742 560 -1026 177 -179 342 -298
567 -408 1037 -509 2288 -104 2816 910 111 213 175 407 217 652 13 79 29 167
35 196 7 29 9 56 6 59 -27 28 -353 56 -381 33 -28 -23 -17 -56 33 -99 48 -42
188 -119 255 -141 20 -6 37 -18 37 -26 0 -22 -122 -259 -184 -358 -51 -81 -55
-90 -41 -106 19 -21 19 -60 2 -103 -18 -41 -125 -177 -194 -244 -93 -91 -196
-138 -228 -104 -41 46 -2 138 110 259 l67 72 -89 0 c-423 0 -745 164 -887 453
-25 50 -50 113 -57 139 l-11 47 -70 -6 -70 -6 26 39 c74 113 108 261 104 459
l-3 140 -7 -150z"/>
<path d="M531 3520 c23 -14 164 -51 153 -41 -12 12 -129 51 -151 51 -16 -1
-16 -2 -2 -10z"/>
<path d="M1145 3500 c-3 -4 -2 -15 1 -23 4 -12 -5 -19 -33 -26 -73 -20 -128
-103 -121 -183 3 -27 7 -50 9 -52 2 -3 56 6 119 19 63 13 153 29 200 35 47 7
86 14 88 15 2 2 -3 18 -11 37 -18 44 -62 85 -105 99 -27 9 -31 13 -21 25 21
25 -5 40 -35 20 -24 -15 -26 -15 -41 8 -18 27 -42 40 -50 26z"/>
<path d="M608 3449 c-31 -4 -72 -12 -90 -18 -29 -8 -30 -9 -8 -10 37 -1 151
19 169 29 20 11 12 11 -71 -1z"/>
<path d="M1651 3435 c-50 -14 -126 -53 -119 -61 2 -1 21 1 43 6 59 14 165 11
210 -5 40 -15 40 -15 67 17 16 18 24 36 20 40 -17 17 -165 18 -221 3z"/>
<path d="M645 3391 c-72 -28 -136 -60 -123 -61 14 0 188 72 194 81 7 12 10 13
-71 -20z"/>
<path d="M1875 3349 c-135 -9 -387 -39 -395 -47 -3 -2 22 -2 55 2 148 15 302
26 461 32 l171 7 6 -63 c4 -35 7 -98 7 -142 0 -92 15 -129 60 -148 89 -37 172
87 187 278 5 56 9 72 22 74 9 1 -31 5 -89 8 -137 10 -335 9 -485 -1z"/>
<path d="M1433 3293 c9 -2 23 -2 30 0 6 3 -1 5 -18 5 -16 0 -22 -2 -12 -5z"/>
<path d="M3365 3250 c-39 -31 -60 -37 -68 -20 -3 6 -4 5 -3 -2 3 -14 40 -16
69 -3 14 6 17 2 17 -23 0 -33 29 -62 62 -62 24 0 48 27 48 55 0 21 6 24 43 28
41 3 40 4 -10 5 -51 2 -52 2 -55 -30 -2 -25 -8 -34 -24 -36 -31 -4 -47 21 -42
73 2 25 3 45 2 45 -1 0 -18 -13 -39 -30z"/>
<path d="M350 3164 c-33 -20 -74 -79 -90 -127 -16 -49 -6 -59 17 -17 10 18 37
62 60 97 24 34 42 63 40 63 -1 0 -13 -8 -27 -16z"/>
<path d="M478 3097 c-60 -55 -103 -164 -79 -204 10 -17 10 -16 11 4 0 35 29
102 72 167 21 32 37 60 35 62 -2 2 -19 -11 -39 -29z"/>
<path d="M3958 2093 c-21 -25 -29 -50 -21 -69 5 -13 12 -6 29 27 13 24 23 47
24 52 0 13 -16 7 -32 -10z"/>
<path d="M4467 1818 c-2 -7 -32 -50 -66 -96 l-62 -84 16 -49 c9 -27 18 -49 21
-49 2 0 11 25 20 55 8 31 31 95 50 142 18 48 32 88 30 90 -2 2 -6 -2 -9 -9z"/>
<path d="M5011 1451 c-37 -51 -46 -118 -27 -187 10 -32 29 -77 43 -98 l26 -40
18 37 c11 20 26 64 34 99 27 115 16 177 -36 204 -36 18 -34 19 -58 -15z"/>
<path d="M4826 1278 c-42 -90 -107 -140 -187 -141 -47 -1 -47 -1 -32 -24 35
-53 136 -87 192 -63 34 14 58 58 62 115 4 67 -1 155 -8 155 -5 0 -17 -19 -27
-42z"/>
<path d="M928 1150 c-139 -60 -241 -147 -254 -216 -11 -57 5 -95 65 -155 190
-189 781 -319 1455 -319 l210 0 -32 -33 c-18 -19 -32 -43 -32 -58 0 -80 186
-161 460 -200 127 -18 492 -15 622 5 571 89 570 310 -3 391 -56 7 -103 16
-105 18 -3 2 37 19 88 36 326 115 442 270 300 404 l-30 29 -94 -51 c-513 -277
-1137 -355 -1723 -216 -254 60 -534 182 -760 331 -49 32 -92 60 -95 61 -3 1
-35 -11 -72 -27z"/>
<path d="M4186 1109 c27 -54 131 -169 153 -169 18 0 5 73 -23 130 -24 50 -82
90 -129 90 l-27 0 26 -51z"/>
<path d="M3748 628 c-59 -21 -18 -47 85 -55 109 -8 193 27 132 55 -31 14 -179
14 -217 0z"/>
</g>
</svg>
